<?xml version="1.0" encoding="utf-8"?>
<!-- Generator: Adobe Illustrator 26.0.1, SVG Export Plug-In . SVG Version: 6.00 Build 0)  -->
<svg version="1.1" id="Layer_1" xmlns="http://www.w3.org/2000/svg" xmlns:xlink="http://www.w3.org/1999/xlink" x="0px" y="0px"
	 viewBox="0 0 1296 1296" style="enable-background:new 0 0 1296 1296;" xml:space="preserve">
<style type="text/css">
	.st0{fill:#E82121;}
</style>
<g>
	<g>
		<g>
			<path class="st0" d="M910.7,965.1h1.9v-3.5C912,962.8,911.4,964,910.7,965.1z"/>
			<path class="st0" d="M374.4,357.7v217.5h86.5c73.3,0,116.2-39,116.2-109c0-69.5-42.4-108.5-115.7-108.5H374.4z"/>
			<path class="st0" d="M663.5,330.9c27.9,35.1,43.7,81.1,43.7,134.9c0,125.5-89.5,209.4-218.3,209.4H374.4v192.9H266.1v97h276.5
				c-15.2-27.7-23.4-60.6-23.4-97.7h124.2c0.8,49.6,33.1,82.2,81.4,82.2c53.4,0,82.2-33.1,82.2-94.5V435.8h105.6v-105H663.5z"/>
		</g>
	</g>
	<g>
		<g>
			<path class="st0" d="M977.3,406.5h-7.6v-48.8h18.9c10,0,16.3,5.8,16.3,14.9c0,6.6-3.5,11.9-9.5,13.9l10.9,20h-8.7l-9.9-18.8
				h-10.4V406.5z M977.3,381.6h10.6c5.8,0,9.2-3.2,9.2-8.8c0-5.4-3.6-8.8-9.4-8.8h-10.4V381.6z"/>
		</g>
		<path class="st0" d="M985.9,426.8c-24.3,0-44-19.7-44-44s19.7-44,44-44c24.3,0,44,19.7,44,44S1010.2,426.8,985.9,426.8z
			 M985.9,345c-20.8,0-37.8,16.9-37.8,37.8s16.9,37.8,37.8,37.8s37.8-16.9,37.8-37.8S1006.7,345,985.9,345z"/>
	</g>
</g>
</svg>
